<?xml version="1.0" encoding="UTF-8" standalone="no"?>
<!DOCTYPE svg PUBLIC "-//W3C//DTD SVG 1.1//EN" "http://www.w3.org/Graphics/SVG/1.1/DTD/svg11.dtd">
<svg width="100%" height="100%" viewBox="0 0 250 41" version="1.1" xmlns="http://www.w3.org/2000/svg" xmlns:xlink="http://www.w3.org/1999/xlink" xml:space="preserve" xmlns:serif="http://www.serif.com/" style="fill-rule:evenodd;clip-rule:evenodd;stroke-miterlimit:10;">
    <g id="Ebene-1" serif:id="Ebene 1">
        <g transform="matrix(-1,0,0,1,29.666,6.5)">
            <path d="M0,-3C-0.828,-3 -1.5,-2.328 -1.5,-1.5C-1.5,-0.672 -0.828,0 0,0C0.828,0 1.5,-0.672 1.5,-1.5C1.5,-2.328 0.828,-3 0,-3" style="fill:rgb(13,121,242);"/>
        </g>
        <g transform="matrix(-1,0,0,1,34.666,6.5)">
            <path d="M0,-3C-0.828,-3 -1.5,-2.328 -1.5,-1.5C-1.5,-0.672 -0.828,0 0,0C0.828,0 1.5,-0.672 1.5,-1.5C1.5,-2.328 0.828,-3 0,-3" style="fill:rgb(13,121,242);"/>
        </g>
        <g transform="matrix(-1,0,0,1,29.666,11.5)">
            <path d="M0,-3C-0.828,-3 -1.5,-2.328 -1.5,-1.5C-1.5,-0.672 -0.828,0 0,0C0.828,0 1.5,-0.672 1.5,-1.5C1.5,-2.328 0.828,-3 0,-3" style="fill:rgb(169,169,169);"/>
        </g>
        <g transform="matrix(-1,0,0,1,29.666,16.5)">
            <path d="M0,-3C-0.828,-3 -1.5,-2.328 -1.5,-1.5C-1.5,-0.672 -0.828,0 0,0C0.828,0 1.5,-0.672 1.5,-1.5C1.5,-2.328 0.828,-3 0,-3" style="fill:rgb(169,169,169);"/>
        </g>
        <g transform="matrix(-1,0,0,1,34.666,16.5)">
            <path d="M0,-3C-0.828,-3 -1.5,-2.328 -1.5,-1.5C-1.5,-0.672 -0.828,0 0,0C0.828,0 1.5,-0.672 1.5,-1.5C1.5,-2.328 0.828,-3 0,-3" style="fill:rgb(169,169,169);"/>
        </g>
        <g transform="matrix(-1,0,0,1,34.666,11.5)">
            <path d="M0,-3C-0.828,-3 -1.5,-2.328 -1.5,-1.5C-1.5,-0.672 -0.828,0 0,0C0.828,0 1.5,-0.672 1.5,-1.5C1.5,-2.328 0.828,-3 0,-3" style="fill:rgb(169,169,169);"/>
        </g>
        <g transform="matrix(-1,0,0,1,29.666,21.5)">
            <path d="M0,-3C-0.828,-3 -1.5,-2.328 -1.5,-1.5C-1.5,-0.672 -0.828,0 0,0C0.828,0 1.5,-0.672 1.5,-1.5C1.5,-2.328 0.828,-3 0,-3" style="fill:rgb(13,121,242);"/>
        </g>
        <g transform="matrix(-1,0,0,1,29.666,26.5)">
            <path d="M0,-3C-0.828,-3 -1.5,-2.328 -1.5,-1.5C-1.5,-0.672 -0.828,0 0,0C0.828,0 1.5,-0.672 1.5,-1.5C1.5,-2.328 0.828,-3 0,-3" style="fill:rgb(169,169,169);"/>
        </g>
        <g transform="matrix(-1,0,0,1,34.666,26.5)">
            <path d="M0,-3C-0.828,-3 -1.5,-2.328 -1.5,-1.5C-1.5,-0.672 -0.828,0 0,0C0.828,0 1.5,-0.672 1.5,-1.5C1.5,-2.328 0.828,-3 0,-3" style="fill:rgb(169,169,169);"/>
        </g>
        <g transform="matrix(-1,0,0,1,34.666,21.5)">
            <path d="M0,-3C-0.828,-3 -1.5,-2.328 -1.5,-1.5C-1.5,-0.672 -0.828,0 0,0C0.828,0 1.5,-0.672 1.5,-1.5C1.5,-2.328 0.828,-3 0,-3" style="fill:rgb(13,121,242);"/>
        </g>
        <g transform="matrix(-1,0,0,1,29.666,36.5)">
            <path d="M0,-3C-0.828,-3 -1.5,-2.328 -1.5,-1.5C-1.5,-0.672 -0.828,0 0,0C0.828,0 1.5,-0.672 1.5,-1.5C1.5,-2.328 0.828,-3 0,-3" style="fill:rgb(169,169,169);"/>
        </g>
        <g transform="matrix(-1,0,0,1,34.666,36.5)">
            <path d="M0,-3C-0.828,-3 -1.5,-2.328 -1.5,-1.5C-1.5,-0.672 -0.828,0 0,0C0.828,0 1.5,-0.672 1.5,-1.5C1.5,-2.328 0.828,-3 0,-3" style="fill:rgb(169,169,169);"/>
        </g>
        <g transform="matrix(-1,0,0,1,29.666,31.5)">
            <path d="M0,-3C-0.828,-3 -1.5,-2.328 -1.5,-1.5C-1.5,-0.672 -0.828,0 0,0C0.828,0 1.5,-0.672 1.5,-1.5C1.5,-2.328 0.828,-3 0,-3" style="fill:rgb(13,121,242);"/>
        </g>
        <g transform="matrix(-1,0,0,1,34.666,31.5)">
            <path d="M0,-3C-0.828,-3 -1.5,-2.328 -1.5,-1.5C-1.5,-0.672 -0.828,0 0,0C0.828,0 1.5,-0.672 1.5,-1.5C1.5,-2.328 0.828,-3 0,-3" style="fill:rgb(13,121,242);"/>
        </g>
        <g transform="matrix(-1,0,0,1,39.666,6.3253)">
            <circle cx="0" cy="-1.325" r="1.325" style="fill:none;stroke:rgb(150,0,145);stroke-width:0.7px;"/>
        </g>
        <g transform="matrix(-1,0,0,1,44.666,6.5)">
            <path d="M0,-3C-0.828,-3 -1.5,-2.328 -1.5,-1.5C-1.5,-0.672 -0.828,0 0,0C0.828,0 1.5,-0.672 1.5,-1.5C1.5,-2.328 0.828,-3 0,-3" style="fill:rgb(13,121,242);"/>
        </g>
        <g transform="matrix(-1,0,0,1,39.666,11.5)">
            <path d="M0,-3C-0.828,-3 -1.5,-2.328 -1.5,-1.5C-1.5,-0.672 -0.828,0 0,0C0.828,0 1.5,-0.672 1.5,-1.5C1.5,-2.328 0.828,-3 0,-3" style="fill:rgb(220,0,0);"/>
        </g>
        <g transform="matrix(-1,0,0,1,39.666,16.5)">
            <path d="M0,-3C-0.828,-3 -1.5,-2.328 -1.5,-1.5C-1.5,-0.672 -0.828,0 0,0C0.828,0 1.5,-0.672 1.5,-1.5C1.5,-2.328 0.828,-3 0,-3" style="fill:rgb(220,0,0);"/>
        </g>
        <g transform="matrix(-1,0,0,1,44.666,16.5)">
            <path d="M0,-3C-0.828,-3 -1.5,-2.328 -1.5,-1.5C-1.5,-0.672 -0.828,0 0,0C0.828,0 1.5,-0.672 1.5,-1.5C1.5,-2.328 0.828,-3 0,-3" style="fill:rgb(169,169,169);"/>
        </g>
        <g transform="matrix(-1,0,0,1,44.666,11.5)">
            <path d="M0,-3C-0.828,-3 -1.5,-2.328 -1.5,-1.5C-1.5,-0.672 -0.828,0 0,0C0.828,0 1.5,-0.672 1.5,-1.5C1.5,-2.328 0.828,-3 0,-3" style="fill:rgb(169,169,169);"/>
        </g>
        <g transform="matrix(-1,0,0,1,39.666,21.5)">
            <path d="M0,-3C-0.828,-3 -1.5,-2.328 -1.5,-1.5C-1.5,-0.672 -0.828,0 0,0C0.828,0 1.5,-0.672 1.5,-1.5C1.5,-2.328 0.828,-3 0,-3" style="fill:rgb(150,0,145);"/>
        </g>
        <g transform="matrix(-1,0,0,1,39.666,26.5)">
            <path d="M0,-3C-0.828,-3 -1.5,-2.328 -1.5,-1.5C-1.5,-0.672 -0.828,0 0,0C0.828,0 1.5,-0.672 1.5,-1.5C1.5,-2.328 0.828,-3 0,-3" style="fill:rgb(220,0,0);"/>
        </g>
        <g transform="matrix(-1,0,0,1,44.666,26.5)">
            <path d="M0,-3C-0.828,-3 -1.5,-2.328 -1.5,-1.5C-1.5,-0.672 -0.828,0 0,0C0.828,0 1.5,-0.672 1.5,-1.5C1.5,-2.328 0.828,-3 0,-3" style="fill:rgb(169,169,169);"/>
        </g>
        <g transform="matrix(-1,0,0,1,44.666,21.5)">
            <path d="M0,-3C-0.828,-3 -1.5,-2.328 -1.5,-1.5C-1.5,-0.672 -0.828,0 0,0C0.828,0 1.5,-0.672 1.5,-1.5C1.5,-2.328 0.828,-3 0,-3" style="fill:rgb(13,121,242);"/>
        </g>
        <g transform="matrix(-1,0,0,1,39.666,36.5)">
            <path d="M0,-3C-0.828,-3 -1.5,-2.328 -1.5,-1.5C-1.5,-0.672 -0.828,0 0,0C0.828,0 1.5,-0.672 1.5,-1.5C1.5,-2.328 0.828,-3 0,-3" style="fill:rgb(220,0,0);"/>
        </g>
        <g transform="matrix(-1,0,0,1,44.666,36.5)">
            <path d="M0,-3C-0.828,-3 -1.5,-2.328 -1.5,-1.5C-1.5,-0.672 -0.828,0 0,0C0.828,0 1.5,-0.672 1.5,-1.5C1.5,-2.328 0.828,-3 0,-3" style="fill:rgb(169,169,169);"/>
        </g>
        <g transform="matrix(-1,0,0,1,39.666,31.5)">
            <path d="M0,-3C-0.828,-3 -1.5,-2.328 -1.5,-1.5C-1.5,-0.672 -0.828,0 0,0C0.828,0 1.5,-0.672 1.5,-1.5C1.5,-2.328 0.828,-3 0,-3" style="fill:rgb(150,0,145);"/>
        </g>
        <g transform="matrix(-1,0,0,1,117.666,6.3253)">
            <circle cx="0" cy="-1.325" r="1.325" style="fill:none;stroke:rgb(150,0,145);stroke-width:0.7px;"/>
        </g>
        <g transform="matrix(-1,0,0,1,117.666,11.5)">
            <path d="M0,-3C-0.828,-3 -1.5,-2.328 -1.5,-1.5C-1.5,-0.672 -0.828,0 0,0C0.828,0 1.5,-0.672 1.5,-1.5C1.5,-2.328 0.828,-3 0,-3" style="fill:rgb(220,0,0);"/>
        </g>
        <g transform="matrix(-1,0,0,1,117.666,16.5)">
            <path d="M0,-3C-0.828,-3 -1.5,-2.328 -1.5,-1.5C-1.5,-0.672 -0.828,0 0,0C0.828,0 1.5,-0.672 1.5,-1.5C1.5,-2.328 0.828,-3 0,-3" style="fill:rgb(220,0,0);"/>
        </g>
        <g transform="matrix(-1,0,0,1,117.666,21.5)">
            <path d="M0,-3C-0.828,-3 -1.5,-2.328 -1.5,-1.5C-1.5,-0.672 -0.828,0 0,0C0.828,0 1.5,-0.672 1.5,-1.5C1.5,-2.328 0.828,-3 0,-3" style="fill:rgb(150,0,145);"/>
        </g>
        <g transform="matrix(-1,0,0,1,117.666,26.5)">
            <path d="M0,-3C-0.828,-3 -1.5,-2.328 -1.5,-1.5C-1.5,-0.672 -0.828,0 0,0C0.828,0 1.5,-0.672 1.5,-1.5C1.5,-2.328 0.828,-3 0,-3" style="fill:rgb(220,0,0);"/>
        </g>
        <g transform="matrix(-1,0,0,1,117.666,36.5)">
            <path d="M0,-3C-0.828,-3 -1.5,-2.328 -1.5,-1.5C-1.5,-0.672 -0.828,0 0,0C0.828,0 1.5,-0.672 1.5,-1.5C1.5,-2.328 0.828,-3 0,-3" style="fill:rgb(220,0,0);"/>
        </g>
        <g transform="matrix(-1,0,0,1,117.666,31.5)">
            <path d="M0,-3C-0.828,-3 -1.5,-2.328 -1.5,-1.5C-1.5,-0.672 -0.828,0 0,0C0.828,0 1.5,-0.672 1.5,-1.5C1.5,-2.328 0.828,-3 0,-3" style="fill:rgb(150,0,145);"/>
        </g>
        <g transform="matrix(-1,0,0,1,122.666,6.5)">
            <path d="M0,-3C-0.828,-3 -1.5,-2.328 -1.5,-1.5C-1.5,-0.672 -0.828,0 0,0C0.828,0 1.5,-0.672 1.5,-1.5C1.5,-2.328 0.828,-3 0,-3" style="fill:rgb(150,0,145);"/>
        </g>
        <g transform="matrix(-1,0,0,1,122.666,16.5)">
            <path d="M0,-3C-0.828,-3 -1.5,-2.328 -1.5,-1.5C-1.5,-0.672 -0.828,0 0,0C0.828,0 1.5,-0.672 1.5,-1.5C1.5,-2.328 0.828,-3 0,-3" style="fill:rgb(220,0,0);"/>
        </g>
        <g transform="matrix(-1,0,0,1,122.666,11.5)">
            <path d="M0,-3C-0.828,-3 -1.5,-2.328 -1.5,-1.5C-1.5,-0.672 -0.828,0 0,0C0.828,0 1.5,-0.672 1.5,-1.5C1.5,-2.328 0.828,-3 0,-3" style="fill:rgb(220,0,0);"/>
        </g>
        <g transform="matrix(-1,0,0,1,122.666,26.5)">
            <path d="M0,-3C-0.828,-3 -1.5,-2.328 -1.5,-1.5C-1.5,-0.672 -0.828,0 0,0C0.828,0 1.5,-0.672 1.5,-1.5C1.5,-2.328 0.828,-3 0,-3" style="fill:rgb(220,0,0);"/>
        </g>
        <g transform="matrix(-1,0,0,1,122.666,21.3253)">
            <circle cx="0" cy="-1.325" r="1.325" style="fill:none;stroke:rgb(150,0,145);stroke-width:0.7px;"/>
        </g>
        <g transform="matrix(-1,0,0,1,122.666,36.5)">
            <path d="M0,-3C-0.828,-3 -1.5,-2.328 -1.5,-1.5C-1.5,-0.672 -0.828,0 0,0C0.828,0 1.5,-0.672 1.5,-1.5C1.5,-2.328 0.828,-3 0,-3" style="fill:rgb(220,0,0);"/>
        </g>
        <g transform="matrix(-1,0,0,1,122.666,31.5)">
            <path d="M0,-3C-0.828,-3 -1.5,-2.328 -1.5,-1.5C-1.5,-0.672 -0.828,0 0,0C0.828,0 1.5,-0.672 1.5,-1.5C1.5,-2.328 0.828,-3 0,-3" style="fill:rgb(150,0,145);"/>
        </g>
        <g transform="matrix(-1,0,0,1,127.666,6.5)">
            <path d="M0,-3C-0.828,-3 -1.5,-2.328 -1.5,-1.5C-1.5,-0.672 -0.828,0 0,0C0.828,0 1.5,-0.672 1.5,-1.5C1.5,-2.328 0.828,-3 0,-3" style="fill:rgb(150,0,145);"/>
        </g>
        <g transform="matrix(-1,0,0,1,127.666,11.5)">
            <path d="M0,-3C-0.828,-3 -1.5,-2.328 -1.5,-1.5C-1.5,-0.672 -0.828,0 0,0C0.828,0 1.5,-0.672 1.5,-1.5C1.5,-2.328 0.828,-3 0,-3" style="fill:rgb(220,0,0);"/>
        </g>
        <g transform="matrix(-1,0,0,1,127.666,16.5)">
            <path d="M0,-3C-0.828,-3 -1.5,-2.328 -1.5,-1.5C-1.5,-0.672 -0.828,0 0,0C0.828,0 1.5,-0.672 1.5,-1.5C1.5,-2.328 0.828,-3 0,-3" style="fill:rgb(220,0,0);"/>
        </g>
        <g transform="matrix(-1,0,0,1,127.666,21.5)">
            <path d="M0,-3C-0.828,-3 -1.5,-2.328 -1.5,-1.5C-1.5,-0.672 -0.828,0 0,0C0.828,0 1.5,-0.672 1.5,-1.5C1.5,-2.328 0.828,-3 0,-3" style="fill:rgb(150,0,145);"/>
        </g>
        <g transform="matrix(-1,0,0,1,127.666,26.5)">
            <path d="M0,-3C-0.828,-3 -1.5,-2.328 -1.5,-1.5C-1.5,-0.672 -0.828,0 0,0C0.828,0 1.5,-0.672 1.5,-1.5C1.5,-2.328 0.828,-3 0,-3" style="fill:rgb(220,0,0);"/>
        </g>
        <g transform="matrix(-1,0,0,1,127.666,36.5)">
            <path d="M0,-3C-0.828,-3 -1.5,-2.328 -1.5,-1.5C-1.5,-0.672 -0.828,0 0,0C0.828,0 1.5,-0.672 1.5,-1.5C1.5,-2.328 0.828,-3 0,-3" style="fill:rgb(220,0,0);"/>
        </g>
        <g transform="matrix(-1,0,0,1,127.666,31.3248)">
            <circle cx="0" cy="-1.325" r="1.325" style="fill:none;stroke:rgb(150,0,145);stroke-width:0.7px;"/>
        </g>
        <g transform="matrix(-1,0,0,1,44.666,31.5)">
            <path d="M0,-3C-0.828,-3 -1.5,-2.328 -1.5,-1.5C-1.5,-0.672 -0.828,0 0,0C0.828,0 1.5,-0.672 1.5,-1.5C1.5,-2.328 0.828,-3 0,-3" style="fill:rgb(13,121,242);"/>
        </g>
        <g transform="matrix(-1,0,0,1,49.666,6.5)">
            <path d="M0,-3C-0.828,-3 -1.5,-2.328 -1.5,-1.5C-1.5,-0.672 -0.828,0 0,0C0.828,0 1.5,-0.672 1.5,-1.5C1.5,-2.328 0.828,-3 0,-3" style="fill:rgb(13,121,242);"/>
        </g>
        <g transform="matrix(-1,0,0,1,54.666,6.5)">
            <path d="M0,-3C-0.828,-3 -1.5,-2.328 -1.5,-1.5C-1.5,-0.672 -0.828,0 0,0C0.828,0 1.5,-0.672 1.5,-1.5C1.5,-2.328 0.828,-3 0,-3" style="fill:rgb(13,121,242);"/>
        </g>
        <g transform="matrix(-1,0,0,1,49.666,11.5)">
            <path d="M0,-3C-0.828,-3 -1.5,-2.328 -1.5,-1.5C-1.5,-0.672 -0.828,0 0,0C0.828,0 1.5,-0.672 1.5,-1.5C1.5,-2.328 0.828,-3 0,-3" style="fill:rgb(169,169,169);"/>
        </g>
        <g transform="matrix(-1,0,0,1,49.666,16.5)">
            <path d="M0,-3C-0.828,-3 -1.5,-2.328 -1.5,-1.5C-1.5,-0.672 -0.828,0 0,0C0.828,0 1.5,-0.672 1.5,-1.5C1.5,-2.328 0.828,-3 0,-3" style="fill:rgb(169,169,169);"/>
        </g>
        <g transform="matrix(-1,0,0,1,54.666,16.5)">
            <path d="M0,-3C-0.828,-3 -1.5,-2.328 -1.5,-1.5C-1.5,-0.672 -0.828,0 0,0C0.828,0 1.5,-0.672 1.5,-1.5C1.5,-2.328 0.828,-3 0,-3" style="fill:rgb(169,169,169);"/>
        </g>
        <g transform="matrix(-1,0,0,1,54.666,11.5)">
            <path d="M0,-3C-0.828,-3 -1.5,-2.328 -1.5,-1.5C-1.5,-0.672 -0.828,0 0,0C0.828,0 1.5,-0.672 1.5,-1.5C1.5,-2.328 0.828,-3 0,-3" style="fill:rgb(169,169,169);"/>
        </g>
        <g transform="matrix(-1,0,0,1,49.666,21.5)">
            <path d="M0,-3C-0.828,-3 -1.5,-2.328 -1.5,-1.5C-1.5,-0.672 -0.828,0 0,0C0.828,0 1.5,-0.672 1.5,-1.5C1.5,-2.328 0.828,-3 0,-3" style="fill:rgb(13,121,242);"/>
        </g>
        <g transform="matrix(-1,0,0,1,49.666,26.5)">
            <path d="M0,-3C-0.828,-3 -1.5,-2.328 -1.5,-1.5C-1.5,-0.672 -0.828,0 0,0C0.828,0 1.5,-0.672 1.5,-1.5C1.5,-2.328 0.828,-3 0,-3" style="fill:rgb(169,169,169);"/>
        </g>
        <g transform="matrix(-1,0,0,1,54.666,26.5)">
            <path d="M0,-3C-0.828,-3 -1.5,-2.328 -1.5,-1.5C-1.5,-0.672 -0.828,0 0,0C0.828,0 1.5,-0.672 1.5,-1.5C1.5,-2.328 0.828,-3 0,-3" style="fill:rgb(169,169,169);"/>
        </g>
        <g transform="matrix(-1,0,0,1,54.666,21.5)">
            <path d="M0,-3C-0.828,-3 -1.5,-2.328 -1.5,-1.5C-1.5,-0.672 -0.828,0 0,0C0.828,0 1.5,-0.672 1.5,-1.5C1.5,-2.328 0.828,-3 0,-3" style="fill:rgb(13,121,242);"/>
        </g>
        <g transform="matrix(-1,0,0,1,49.666,36.5)">
            <path d="M0,-3C-0.828,-3 -1.5,-2.328 -1.5,-1.5C-1.5,-0.672 -0.828,0 0,0C0.828,0 1.5,-0.672 1.5,-1.5C1.5,-2.328 0.828,-3 0,-3" style="fill:rgb(169,169,169);"/>
        </g>
        <g transform="matrix(-1,0,0,1,54.666,36.5)">
            <path d="M0,-3C-0.828,-3 -1.5,-2.328 -1.5,-1.5C-1.5,-0.672 -0.828,0 0,0C0.828,0 1.5,-0.672 1.5,-1.5C1.5,-2.328 0.828,-3 0,-3" style="fill:rgb(169,169,169);"/>
        </g>
        <g transform="matrix(-1,0,0,1,49.666,31.5)">
            <path d="M0,-3C-0.828,-3 -1.5,-2.328 -1.5,-1.5C-1.5,-0.672 -0.828,0 0,0C0.828,0 1.5,-0.672 1.5,-1.5C1.5,-2.328 0.828,-3 0,-3" style="fill:rgb(13,121,242);"/>
        </g>
        <g transform="matrix(-1,0,0,1,54.666,31.5)">
            <path d="M0,-3C-0.828,-3 -1.5,-2.328 -1.5,-1.5C-1.5,-0.672 -0.828,0 0,0C0.828,0 1.5,-0.672 1.5,-1.5C1.5,-2.328 0.828,-3 0,-3" style="fill:rgb(13,121,242);"/>
        </g>
        <g transform="matrix(-1,0,0,1,59.666,6.5)">
            <path d="M0,-3C-0.828,-3 -1.5,-2.328 -1.5,-1.5C-1.5,-0.672 -0.828,0 0,0C0.828,0 1.5,-0.672 1.5,-1.5C1.5,-2.328 0.828,-3 0,-3" style="fill:rgb(13,121,242);"/>
        </g>
        <g transform="matrix(-1,0,0,1,64.666,6.5)">
            <path d="M0,-3C-0.828,-3 -1.5,-2.328 -1.5,-1.5C-1.5,-0.672 -0.828,0 0,0C0.828,0 1.5,-0.672 1.5,-1.5C1.5,-2.328 0.828,-3 0,-3" style="fill:rgb(150,0,145);"/>
        </g>
        <g transform="matrix(-1,0,0,1,59.666,11.5)">
            <path d="M0,-3C-0.828,-3 -1.5,-2.328 -1.5,-1.5C-1.5,-0.672 -0.828,0 0,0C0.828,0 1.5,-0.672 1.5,-1.5C1.5,-2.328 0.828,-3 0,-3" style="fill:rgb(169,169,169);"/>
        </g>
        <g transform="matrix(-1,0,0,1,59.666,16.5)">
            <path d="M0,-3C-0.828,-3 -1.5,-2.328 -1.5,-1.5C-1.5,-0.672 -0.828,0 0,0C0.828,0 1.5,-0.672 1.5,-1.5C1.5,-2.328 0.828,-3 0,-3" style="fill:rgb(169,169,169);"/>
        </g>
        <g transform="matrix(-1,0,0,1,64.666,16.5)">
            <path d="M0,-3C-0.828,-3 -1.5,-2.328 -1.5,-1.5C-1.5,-0.672 -0.828,0 0,0C0.828,0 1.5,-0.672 1.5,-1.5C1.5,-2.328 0.828,-3 0,-3" style="fill:rgb(220,0,0);"/>
        </g>
        <g transform="matrix(-1,0,0,1,64.666,11.5)">
            <path d="M0,-3C-0.828,-3 -1.5,-2.328 -1.5,-1.5C-1.5,-0.672 -0.828,0 0,0C0.828,0 1.5,-0.672 1.5,-1.5C1.5,-2.328 0.828,-3 0,-3" style="fill:rgb(220,0,0);"/>
        </g>
        <g transform="matrix(-1,0,0,1,59.666,21.5)">
            <path d="M0,-3C-0.828,-3 -1.5,-2.328 -1.5,-1.5C-1.5,-0.672 -0.828,0 0,0C0.828,0 1.5,-0.672 1.5,-1.5C1.5,-2.328 0.828,-3 0,-3" style="fill:rgb(13,121,242);"/>
        </g>
        <g transform="matrix(-1,0,0,1,59.666,26.5)">
            <path d="M0,-3C-0.828,-3 -1.5,-2.328 -1.5,-1.5C-1.5,-0.672 -0.828,0 0,0C0.828,0 1.5,-0.672 1.5,-1.5C1.5,-2.328 0.828,-3 0,-3" style="fill:rgb(169,169,169);"/>
        </g>
        <g transform="matrix(-1,0,0,1,64.666,26.5)">
            <path d="M0,-3C-0.828,-3 -1.5,-2.328 -1.5,-1.5C-1.5,-0.672 -0.828,0 0,0C0.828,0 1.5,-0.672 1.5,-1.5C1.5,-2.328 0.828,-3 0,-3" style="fill:rgb(220,0,0);"/>
        </g>
        <g transform="matrix(-1,0,0,1,64.666,21.3253)">
            <circle cx="0" cy="-1.325" r="1.325" style="fill:none;stroke:rgb(150,0,145);stroke-width:0.7px;"/>
        </g>
        <g transform="matrix(-1,0,0,1,59.666,36.5)">
            <path d="M0,-3C-0.828,-3 -1.5,-2.328 -1.5,-1.5C-1.5,-0.672 -0.828,0 0,0C0.828,0 1.5,-0.672 1.5,-1.5C1.5,-2.328 0.828,-3 0,-3" style="fill:rgb(169,169,169);"/>
        </g>
        <g transform="matrix(-1,0,0,1,64.666,36.5)">
            <path d="M0,-3C-0.828,-3 -1.5,-2.328 -1.5,-1.5C-1.5,-0.672 -0.828,0 0,0C0.828,0 1.5,-0.672 1.5,-1.5C1.5,-2.328 0.828,-3 0,-3" style="fill:rgb(220,0,0);"/>
        </g>
        <g transform="matrix(-1,0,0,1,59.666,31.5)">
            <path d="M0,-3C-0.828,-3 -1.5,-2.328 -1.5,-1.5C-1.5,-0.672 -0.828,0 0,0C0.828,0 1.5,-0.672 1.5,-1.5C1.5,-2.328 0.828,-3 0,-3" style="fill:rgb(13,121,242);"/>
        </g>
        <g transform="matrix(-1,0,0,1,64.666,31.5)">
            <path d="M0,-3C-0.828,-3 -1.5,-2.328 -1.5,-1.5C-1.5,-0.672 -0.828,0 0,0C0.828,0 1.5,-0.672 1.5,-1.5C1.5,-2.328 0.828,-3 0,-3" style="fill:rgb(150,0,145);"/>
        </g>
        <g transform="matrix(-1,0,0,1,69.666,6.5)">
            <path d="M0,-3C-0.828,-3 -1.5,-2.328 -1.5,-1.5C-1.5,-0.672 -0.828,0 0,0C0.828,0 1.5,-0.672 1.5,-1.5C1.5,-2.328 0.828,-3 0,-3" style="fill:rgb(13,121,242);"/>
        </g>
        <g transform="matrix(-1,0,0,1,74.666,6.5)">
            <path d="M0,-3C-0.828,-3 -1.5,-2.328 -1.5,-1.5C-1.5,-0.672 -0.828,0 0,0C0.828,0 1.5,-0.672 1.5,-1.5C1.5,-2.328 0.828,-3 0,-3" style="fill:rgb(13,121,242);"/>
        </g>
        <g transform="matrix(-1,0,0,1,69.666,11.5)">
            <path d="M0,-3C-0.828,-3 -1.5,-2.328 -1.5,-1.5C-1.5,-0.672 -0.828,0 0,0C0.828,0 1.5,-0.672 1.5,-1.5C1.5,-2.328 0.828,-3 0,-3" style="fill:rgb(169,169,169);"/>
        </g>
        <g transform="matrix(-1,0,0,1,69.666,16.5)">
            <path d="M0,-3C-0.828,-3 -1.5,-2.328 -1.5,-1.5C-1.5,-0.672 -0.828,0 0,0C0.828,0 1.5,-0.672 1.5,-1.5C1.5,-2.328 0.828,-3 0,-3" style="fill:rgb(169,169,169);"/>
        </g>
        <g transform="matrix(-1,0,0,1,74.666,16.5)">
            <path d="M0,-3C-0.828,-3 -1.5,-2.328 -1.5,-1.5C-1.5,-0.672 -0.828,0 0,0C0.828,0 1.5,-0.672 1.5,-1.5C1.5,-2.328 0.828,-3 0,-3" style="fill:rgb(169,169,169);"/>
        </g>
        <g transform="matrix(-1,0,0,1,74.666,11.5)">
            <path d="M0,-3C-0.828,-3 -1.5,-2.328 -1.5,-1.5C-1.5,-0.672 -0.828,0 0,0C0.828,0 1.5,-0.672 1.5,-1.5C1.5,-2.328 0.828,-3 0,-3" style="fill:rgb(169,169,169);"/>
        </g>
        <g transform="matrix(-1,0,0,1,69.666,21.5)">
            <path d="M0,-3C-0.828,-3 -1.5,-2.328 -1.5,-1.5C-1.5,-0.672 -0.828,0 0,0C0.828,0 1.5,-0.672 1.5,-1.5C1.5,-2.328 0.828,-3 0,-3" style="fill:rgb(13,121,242);"/>
        </g>
        <g transform="matrix(-1,0,0,1,69.666,26.5)">
            <path d="M0,-3C-0.828,-3 -1.5,-2.328 -1.5,-1.5C-1.5,-0.672 -0.828,0 0,0C0.828,0 1.5,-0.672 1.5,-1.5C1.5,-2.328 0.828,-3 0,-3" style="fill:rgb(169,169,169);"/>
        </g>
        <g transform="matrix(-1,0,0,1,74.666,26.5)">
            <path d="M0,-3C-0.828,-3 -1.5,-2.328 -1.5,-1.5C-1.5,-0.672 -0.828,0 0,0C0.828,0 1.5,-0.672 1.5,-1.5C1.5,-2.328 0.828,-3 0,-3" style="fill:rgb(169,169,169);"/>
        </g>
        <g transform="matrix(-1,0,0,1,74.666,21.5)">
            <path d="M0,-3C-0.828,-3 -1.5,-2.328 -1.5,-1.5C-1.5,-0.672 -0.828,0 0,0C0.828,0 1.5,-0.672 1.5,-1.5C1.5,-2.328 0.828,-3 0,-3" style="fill:rgb(13,121,242);"/>
        </g>
        <g transform="matrix(-1,0,0,1,69.666,36.5)">
            <path d="M0,-3C-0.828,-3 -1.5,-2.328 -1.5,-1.5C-1.5,-0.672 -0.828,0 0,0C0.828,0 1.5,-0.672 1.5,-1.5C1.5,-2.328 0.828,-3 0,-3" style="fill:rgb(169,169,169);"/>
        </g>
        <g transform="matrix(-1,0,0,1,74.666,36.5)">
            <path d="M0,-3C-0.828,-3 -1.5,-2.328 -1.5,-1.5C-1.5,-0.672 -0.828,0 0,0C0.828,0 1.5,-0.672 1.5,-1.5C1.5,-2.328 0.828,-3 0,-3" style="fill:rgb(169,169,169);"/>
        </g>
        <g transform="matrix(-1,0,0,1,69.666,31.5)">
            <path d="M0,-3C-0.828,-3 -1.5,-2.328 -1.5,-1.5C-1.5,-0.672 -0.828,0 0,0C0.828,0 1.5,-0.672 1.5,-1.5C1.5,-2.328 0.828,-3 0,-3" style="fill:rgb(13,121,242);"/>
        </g>
        <g transform="matrix(-1,0,0,1,74.666,31.5)">
            <path d="M0,-3C-0.828,-3 -1.5,-2.328 -1.5,-1.5C-1.5,-0.672 -0.828,0 0,0C0.828,0 1.5,-0.672 1.5,-1.5C1.5,-2.328 0.828,-3 0,-3" style="fill:rgb(13,121,242);"/>
        </g>
        <g transform="matrix(-1,0,0,1,79.666,6.5)">
            <path d="M0,-3C-0.828,-3 -1.5,-2.328 -1.5,-1.5C-1.5,-0.672 -0.828,0 0,0C0.828,0 1.5,-0.672 1.5,-1.5C1.5,-2.328 0.828,-3 0,-3" style="fill:rgb(150,0,145);"/>
        </g>
        <g transform="matrix(-1,0,0,1,84.666,6.5)">
            <path d="M0,-3C-0.828,-3 -1.5,-2.328 -1.5,-1.5C-1.5,-0.672 -0.828,0 0,0C0.828,0 1.5,-0.672 1.5,-1.5C1.5,-2.328 0.828,-3 0,-3" style="fill:rgb(13,121,242);"/>
        </g>
        <g transform="matrix(-1,0,0,1,79.666,11.5)">
            <path d="M0,-3C-0.828,-3 -1.5,-2.328 -1.5,-1.5C-1.5,-0.672 -0.828,0 0,0C0.828,0 1.5,-0.672 1.5,-1.5C1.5,-2.328 0.828,-3 0,-3" style="fill:rgb(220,0,0);"/>
        </g>
        <g transform="matrix(-1,0,0,1,79.666,16.5)">
            <path d="M0,-3C-0.828,-3 -1.5,-2.328 -1.5,-1.5C-1.5,-0.672 -0.828,0 0,0C0.828,0 1.5,-0.672 1.5,-1.5C1.5,-2.328 0.828,-3 0,-3" style="fill:rgb(220,0,0);"/>
        </g>
        <g transform="matrix(-1,0,0,1,84.666,16.5)">
            <path d="M0,-3C-0.828,-3 -1.5,-2.328 -1.5,-1.5C-1.5,-0.672 -0.828,0 0,0C0.828,0 1.5,-0.672 1.5,-1.5C1.5,-2.328 0.828,-3 0,-3" style="fill:rgb(169,169,169);"/>
        </g>
        <g transform="matrix(-1,0,0,1,84.666,11.5)">
            <path d="M0,-3C-0.828,-3 -1.5,-2.328 -1.5,-1.5C-1.5,-0.672 -0.828,0 0,0C0.828,0 1.5,-0.672 1.5,-1.5C1.5,-2.328 0.828,-3 0,-3" style="fill:rgb(169,169,169);"/>
        </g>
        <g transform="matrix(-1,0,0,1,79.666,21.5)">
            <path d="M0,-3C-0.828,-3 -1.5,-2.328 -1.5,-1.5C-1.5,-0.672 -0.828,0 0,0C0.828,0 1.5,-0.672 1.5,-1.5C1.5,-2.328 0.828,-3 0,-3" style="fill:rgb(150,0,145);"/>
        </g>
        <g transform="matrix(-1,0,0,1,79.666,26.5)">
            <path d="M0,-3C-0.828,-3 -1.5,-2.328 -1.5,-1.5C-1.5,-0.672 -0.828,0 0,0C0.828,0 1.5,-0.672 1.5,-1.5C1.5,-2.328 0.828,-3 0,-3" style="fill:rgb(220,0,0);"/>
        </g>
        <g transform="matrix(-1,0,0,1,84.666,26.5)">
            <path d="M0,-3C-0.828,-3 -1.5,-2.328 -1.5,-1.5C-1.5,-0.672 -0.828,0 0,0C0.828,0 1.5,-0.672 1.5,-1.5C1.5,-2.328 0.828,-3 0,-3" style="fill:rgb(169,169,169);"/>
        </g>
        <g transform="matrix(-1,0,0,1,84.666,21.5)">
            <path d="M0,-3C-0.828,-3 -1.5,-2.328 -1.5,-1.5C-1.5,-0.672 -0.828,0 0,0C0.828,0 1.5,-0.672 1.5,-1.5C1.5,-2.328 0.828,-3 0,-3" style="fill:rgb(13,121,242);"/>
        </g>
        <g transform="matrix(-1,0,0,1,79.666,36.5)">
            <path d="M0,-3C-0.828,-3 -1.5,-2.328 -1.5,-1.5C-1.5,-0.672 -0.828,0 0,0C0.828,0 1.5,-0.672 1.5,-1.5C1.5,-2.328 0.828,-3 0,-3" style="fill:rgb(220,0,0);"/>
        </g>
        <g transform="matrix(-1,0,0,1,84.666,36.5)">
            <path d="M0,-3C-0.828,-3 -1.5,-2.328 -1.5,-1.5C-1.5,-0.672 -0.828,0 0,0C0.828,0 1.5,-0.672 1.5,-1.5C1.5,-2.328 0.828,-3 0,-3" style="fill:rgb(169,169,169);"/>
        </g>
        <g transform="matrix(-1,0,0,1,79.666,31.3248)">
            <circle cx="0" cy="-1.325" r="1.325" style="fill:none;stroke:rgb(150,0,145);stroke-width:0.7px;"/>
        </g>
        <g transform="matrix(-1,0,0,1,84.666,31.5)">
            <path d="M0,-3C-0.828,-3 -1.5,-2.328 -1.5,-1.5C-1.5,-0.672 -0.828,0 0,0C0.828,0 1.5,-0.672 1.5,-1.5C1.5,-2.328 0.828,-3 0,-3" style="fill:rgb(13,121,242);"/>
        </g>
        <g transform="matrix(-1,0,0,1,89.666,6.5)">
            <path d="M0,-3C-0.828,-3 -1.5,-2.328 -1.5,-1.5C-1.5,-0.672 -0.828,0 0,0C0.828,0 1.5,-0.672 1.5,-1.5C1.5,-2.328 0.828,-3 0,-3" style="fill:rgb(13,121,242);"/>
        </g>
        <g transform="matrix(-1,0,0,1,89.666,16.5)">
            <path d="M0,-3C-0.828,-3 -1.5,-2.328 -1.5,-1.5C-1.5,-0.672 -0.828,0 0,0C0.828,0 1.5,-0.672 1.5,-1.5C1.5,-2.328 0.828,-3 0,-3" style="fill:rgb(169,169,169);"/>
        </g>
        <g transform="matrix(-1,0,0,1,89.666,11.5)">
            <path d="M0,-3C-0.828,-3 -1.5,-2.328 -1.5,-1.5C-1.5,-0.672 -0.828,0 0,0C0.828,0 1.5,-0.672 1.5,-1.5C1.5,-2.328 0.828,-3 0,-3" style="fill:rgb(169,169,169);"/>
        </g>
        <g transform="matrix(-1,0,0,1,89.666,26.5)">
            <path d="M0,-3C-0.828,-3 -1.5,-2.328 -1.5,-1.5C-1.5,-0.672 -0.828,0 0,0C0.828,0 1.5,-0.672 1.5,-1.5C1.5,-2.328 0.828,-3 0,-3" style="fill:rgb(169,169,169);"/>
        </g>
        <g transform="matrix(-1,0,0,1,89.666,21.5)">
            <path d="M0,-3C-0.828,-3 -1.5,-2.328 -1.5,-1.5C-1.5,-0.672 -0.828,0 0,0C0.828,0 1.5,-0.672 1.5,-1.5C1.5,-2.328 0.828,-3 0,-3" style="fill:rgb(13,121,242);"/>
        </g>
        <g transform="matrix(-1,0,0,1,89.666,36.5)">
            <path d="M0,-3C-0.828,-3 -1.5,-2.328 -1.5,-1.5C-1.5,-0.672 -0.828,0 0,0C0.828,0 1.5,-0.672 1.5,-1.5C1.5,-2.328 0.828,-3 0,-3" style="fill:rgb(169,169,169);"/>
        </g>
        <g transform="matrix(-1,0,0,1,89.666,31.5)">
            <path d="M0,-3C-0.828,-3 -1.5,-2.328 -1.5,-1.5C-1.5,-0.672 -0.828,0 0,0C0.828,0 1.5,-0.672 1.5,-1.5C1.5,-2.328 0.828,-3 0,-3" style="fill:rgb(13,121,242);"/>
        </g>
        <g transform="matrix(1,0,0,1,0,10.1102)">
            <g transform="matrix(-1,0,0,1,142.666,6.3253)">
                <circle cx="0" cy="-1.325" r="1.325" style="fill:none;stroke:rgb(150,0,145);stroke-width:0.7px;"/>
            </g>
            <g transform="matrix(-1,0,0,1,147.666,6.5)">
                <path d="M0,-3C-0.828,-3 -1.5,-2.328 -1.5,-1.5C-1.5,-0.672 -0.828,0 0,0C0.828,0 1.5,-0.672 1.5,-1.5C1.5,-2.328 0.828,-3 0,-3" style="fill:rgb(150,0,145);"/>
            </g>
            <g transform="matrix(-1,0,0,1,152.666,6.5)">
                <path d="M0,-3C-0.828,-3 -1.5,-2.328 -1.5,-1.5C-1.5,-0.672 -0.828,0 0,0C0.828,0 1.5,-0.672 1.5,-1.5C1.5,-2.328 0.828,-3 0,-3" style="fill:rgb(150,0,145);"/>
            </g>
            <g transform="matrix(-1,0,0,1,142.666,11.5)">
                <path d="M0,-3C-0.828,-3 -1.5,-2.328 -1.5,-1.5C-1.5,-0.672 -0.828,0 0,0C0.828,0 1.5,-0.672 1.5,-1.5C1.5,-2.328 0.828,-3 0,-3" style="fill:rgb(150,0,145);"/>
            </g>
            <g transform="matrix(-1,0,0,1,147.666,11.3253)">
                <circle cx="0" cy="-1.325" r="1.325" style="fill:none;stroke:rgb(150,0,145);stroke-width:0.7px;"/>
            </g>
            <g transform="matrix(-1,0,0,1,152.666,11.5)">
                <path d="M0,-3C-0.828,-3 -1.5,-2.328 -1.5,-1.5C-1.5,-0.672 -0.828,0 0,0C0.828,0 1.5,-0.672 1.5,-1.5C1.5,-2.328 0.828,-3 0,-3" style="fill:rgb(150,0,145);"/>
            </g>
            <g transform="matrix(-1,0,0,1,142.666,16.5)">
                <path d="M0,-3C-0.828,-3 -1.5,-2.328 -1.5,-1.5C-1.5,-0.672 -0.828,0 0,0C0.828,0 1.5,-0.672 1.5,-1.5C1.5,-2.328 0.828,-3 0,-3" style="fill:rgb(150,0,145);"/>
            </g>
            <g transform="matrix(-1,0,0,1,147.666,16.5)">
                <path d="M0,-3C-0.828,-3 -1.5,-2.328 -1.5,-1.5C-1.5,-0.672 -0.828,0 0,0C0.828,0 1.5,-0.672 1.5,-1.5C1.5,-2.328 0.828,-3 0,-3" style="fill:rgb(150,0,145);"/>
            </g>
            <g transform="matrix(-1,0,0,1,152.666,16.3253)">
                <circle cx="0" cy="-1.325" r="1.325" style="fill:none;stroke:rgb(150,0,145);stroke-width:0.7px;"/>
            </g>
            <g transform="matrix(-1,0,0,1,178.666,6.5)">
                <path d="M0,-3C-0.828,-3 -1.5,-2.328 -1.5,-1.5C-1.5,-0.672 -0.828,0 0,0C0.828,0 1.5,-0.672 1.5,-1.5C1.5,-2.328 0.828,-3 0,-3" style="fill:rgb(13,121,242);"/>
            </g>
            <g transform="matrix(-1,0,0,1,183.666,6.5)">
                <path d="M0,-3C-0.828,-3 -1.5,-2.328 -1.5,-1.5C-1.5,-0.672 -0.828,0 0,0C0.828,0 1.5,-0.672 1.5,-1.5C1.5,-2.328 0.828,-3 0,-3" style="fill:rgb(13,121,242);"/>
            </g>
            <g transform="matrix(-1,0,0,1,188.666,6.3253)">
                <circle cx="0" cy="-1.325" r="1.325" style="fill:none;stroke:rgb(150,0,145);stroke-width:0.7px;"/>
            </g>
            <g transform="matrix(-1,0,0,1,193.666,6.5)">
                <path d="M0,-3C-0.828,-3 -1.5,-2.328 -1.5,-1.5C-1.5,-0.672 -0.828,0 0,0C0.828,0 1.5,-0.672 1.5,-1.5C1.5,-2.328 0.828,-3 0,-3" style="fill:rgb(13,121,242);"/>
            </g>
            <g transform="matrix(-1,0,0,1,198.666,6.5)">
                <path d="M0,-3C-0.828,-3 -1.5,-2.328 -1.5,-1.5C-1.5,-0.672 -0.828,0 0,0C0.828,0 1.5,-0.672 1.5,-1.5C1.5,-2.328 0.828,-3 0,-3" style="fill:rgb(13,121,242);"/>
            </g>
            <g transform="matrix(-1,0,0,1,203.666,6.5)">
                <path d="M0,-3C-0.828,-3 -1.5,-2.328 -1.5,-1.5C-1.5,-0.672 -0.828,0 0,0C0.828,0 1.5,-0.672 1.5,-1.5C1.5,-2.328 0.828,-3 0,-3" style="fill:rgb(13,121,242);"/>
            </g>
            <g transform="matrix(-1,0,0,1,208.666,6.5)">
                <path d="M0,-3C-0.828,-3 -1.5,-2.328 -1.5,-1.5C-1.5,-0.672 -0.828,0 0,0C0.828,0 1.5,-0.672 1.5,-1.5C1.5,-2.328 0.828,-3 0,-3" style="fill:rgb(13,121,242);"/>
            </g>
            <g transform="matrix(-1,0,0,1,213.666,6.5)">
                <path d="M0,-3C-0.828,-3 -1.5,-2.328 -1.5,-1.5C-1.5,-0.672 -0.828,0 0,0C0.828,0 1.5,-0.672 1.5,-1.5C1.5,-2.328 0.828,-3 0,-3" style="fill:rgb(150,0,145);"/>
            </g>
            <g transform="matrix(-1,0,0,1,218.666,6.5)">
                <path d="M0,-3C-0.828,-3 -1.5,-2.328 -1.5,-1.5C-1.5,-0.672 -0.828,0 0,0C0.828,0 1.5,-0.672 1.5,-1.5C1.5,-2.328 0.828,-3 0,-3" style="fill:rgb(13,121,242);"/>
            </g>
            <g transform="matrix(-1,0,0,1,223.666,6.5)">
                <path d="M0,-3C-0.828,-3 -1.5,-2.328 -1.5,-1.5C-1.5,-0.672 -0.828,0 0,0C0.828,0 1.5,-0.672 1.5,-1.5C1.5,-2.328 0.828,-3 0,-3" style="fill:rgb(13,121,242);"/>
            </g>
            <g transform="matrix(-1,0,0,1,228.666,6.5)">
                <path d="M0,-3C-0.828,-3 -1.5,-2.328 -1.5,-1.5C-1.5,-0.672 -0.828,0 0,0C0.828,0 1.5,-0.672 1.5,-1.5C1.5,-2.328 0.828,-3 0,-3" style="fill:rgb(150,0,145);"/>
            </g>
            <g transform="matrix(-1,0,0,1,233.666,6.5)">
                <path d="M0,-3C-0.828,-3 -1.5,-2.328 -1.5,-1.5C-1.5,-0.672 -0.828,0 0,0C0.828,0 1.5,-0.672 1.5,-1.5C1.5,-2.328 0.828,-3 0,-3" style="fill:rgb(13,121,242);"/>
            </g>
            <g transform="matrix(-1,0,0,1,238.666,6.5)">
                <path d="M0,-3C-0.828,-3 -1.5,-2.328 -1.5,-1.5C-1.5,-0.672 -0.828,0 0,0C0.828,0 1.5,-0.672 1.5,-1.5C1.5,-2.328 0.828,-3 0,-3" style="fill:rgb(13,121,242);"/>
            </g>
            <g transform="matrix(-1,0,0,1,178.666,11.5)">
                <path d="M0,-3C-0.828,-3 -1.5,-2.328 -1.5,-1.5C-1.5,-0.672 -0.828,0 0,0C0.828,0 1.5,-0.672 1.5,-1.5C1.5,-2.328 0.828,-3 0,-3" style="fill:rgb(13,121,242);"/>
            </g>
            <g transform="matrix(-1,0,0,1,183.666,11.5)">
                <path d="M0,-3C-0.828,-3 -1.5,-2.328 -1.5,-1.5C-1.5,-0.672 -0.828,0 0,0C0.828,0 1.5,-0.672 1.5,-1.5C1.5,-2.328 0.828,-3 0,-3" style="fill:rgb(13,121,242);"/>
            </g>
            <g transform="matrix(-1,0,0,1,188.666,11.5)">
                <path d="M0,-3C-0.828,-3 -1.5,-2.328 -1.5,-1.5C-1.5,-0.672 -0.828,0 0,0C0.828,0 1.5,-0.672 1.5,-1.5C1.5,-2.328 0.828,-3 0,-3" style="fill:rgb(150,0,145);"/>
            </g>
            <g transform="matrix(-1,0,0,1,193.666,11.5)">
                <path d="M0,-3C-0.828,-3 -1.5,-2.328 -1.5,-1.5C-1.5,-0.672 -0.828,0 0,0C0.828,0 1.5,-0.672 1.5,-1.5C1.5,-2.328 0.828,-3 0,-3" style="fill:rgb(13,121,242);"/>
            </g>
            <g transform="matrix(-1,0,0,1,198.666,11.5)">
                <path d="M0,-3C-0.828,-3 -1.5,-2.328 -1.5,-1.5C-1.5,-0.672 -0.828,0 0,0C0.828,0 1.5,-0.672 1.5,-1.5C1.5,-2.328 0.828,-3 0,-3" style="fill:rgb(13,121,242);"/>
            </g>
            <g transform="matrix(-1,0,0,1,203.666,11.5)">
                <path d="M0,-3C-0.828,-3 -1.5,-2.328 -1.5,-1.5C-1.5,-0.672 -0.828,0 0,0C0.828,0 1.5,-0.672 1.5,-1.5C1.5,-2.328 0.828,-3 0,-3" style="fill:rgb(13,121,242);"/>
            </g>
            <g transform="matrix(-1,0,0,1,208.666,11.5)">
                <path d="M0,-3C-0.828,-3 -1.5,-2.328 -1.5,-1.5C-1.5,-0.672 -0.828,0 0,0C0.828,0 1.5,-0.672 1.5,-1.5C1.5,-2.328 0.828,-3 0,-3" style="fill:rgb(13,121,242);"/>
            </g>
            <g transform="matrix(-1,0,0,1,213.666,11.3253)">
                <circle cx="0" cy="-1.325" r="1.325" style="fill:none;stroke:rgb(150,0,145);stroke-width:0.7px;"/>
            </g>
            <g transform="matrix(-1,0,0,1,218.666,11.5)">
                <path d="M0,-3C-0.828,-3 -1.5,-2.328 -1.5,-1.5C-1.5,-0.672 -0.828,0 0,0C0.828,0 1.5,-0.672 1.5,-1.5C1.5,-2.328 0.828,-3 0,-3" style="fill:rgb(13,121,242);"/>
            </g>
            <g transform="matrix(-1,0,0,1,223.666,11.5)">
                <path d="M0,-3C-0.828,-3 -1.5,-2.328 -1.5,-1.5C-1.5,-0.672 -0.828,0 0,0C0.828,0 1.5,-0.672 1.5,-1.5C1.5,-2.328 0.828,-3 0,-3" style="fill:rgb(13,121,242);"/>
            </g>
            <g transform="matrix(-1,0,0,1,228.666,11.5)">
                <path d="M0,-3C-0.828,-3 -1.5,-2.328 -1.5,-1.5C-1.5,-0.672 -0.828,0 0,0C0.828,0 1.5,-0.672 1.5,-1.5C1.5,-2.328 0.828,-3 0,-3" style="fill:rgb(150,0,145);"/>
            </g>
            <g transform="matrix(-1,0,0,1,233.666,11.5)">
                <path d="M0,-3C-0.828,-3 -1.5,-2.328 -1.5,-1.5C-1.5,-0.672 -0.828,0 0,0C0.828,0 1.5,-0.672 1.5,-1.5C1.5,-2.328 0.828,-3 0,-3" style="fill:rgb(13,121,242);"/>
            </g>
            <g transform="matrix(-1,0,0,1,238.666,11.5)">
                <path d="M0,-3C-0.828,-3 -1.5,-2.328 -1.5,-1.5C-1.5,-0.672 -0.828,0 0,0C0.828,0 1.5,-0.672 1.5,-1.5C1.5,-2.328 0.828,-3 0,-3" style="fill:rgb(13,121,242);"/>
            </g>
            <g transform="matrix(-1,0,0,1,178.666,16.5)">
                <path d="M0,-3C-0.828,-3 -1.5,-2.328 -1.5,-1.5C-1.5,-0.672 -0.828,0 0,0C0.828,0 1.5,-0.672 1.5,-1.5C1.5,-2.328 0.828,-3 0,-3" style="fill:rgb(13,121,242);"/>
            </g>
            <g transform="matrix(-1,0,0,1,183.666,16.5)">
                <path d="M0,-3C-0.828,-3 -1.5,-2.328 -1.5,-1.5C-1.5,-0.672 -0.828,0 0,0C0.828,0 1.5,-0.672 1.5,-1.5C1.5,-2.328 0.828,-3 0,-3" style="fill:rgb(13,121,242);"/>
            </g>
            <g transform="matrix(-1,0,0,1,188.666,16.5)">
                <path d="M0,-3C-0.828,-3 -1.5,-2.328 -1.5,-1.5C-1.5,-0.672 -0.828,0 0,0C0.828,0 1.5,-0.672 1.5,-1.5C1.5,-2.328 0.828,-3 0,-3" style="fill:rgb(150,0,145);"/>
            </g>
            <g transform="matrix(-1,0,0,1,193.666,16.5)">
                <path d="M0,-3C-0.828,-3 -1.5,-2.328 -1.5,-1.5C-1.5,-0.672 -0.828,0 0,0C0.828,0 1.5,-0.672 1.5,-1.5C1.5,-2.328 0.828,-3 0,-3" style="fill:rgb(13,121,242);"/>
            </g>
            <g transform="matrix(-1,0,0,1,198.666,16.5)">
                <path d="M0,-3C-0.828,-3 -1.5,-2.328 -1.5,-1.5C-1.5,-0.672 -0.828,0 0,0C0.828,0 1.5,-0.672 1.5,-1.5C1.5,-2.328 0.828,-3 0,-3" style="fill:rgb(13,121,242);"/>
            </g>
            <g transform="matrix(-1,0,0,1,203.666,16.5)">
                <path d="M0,-3C-0.828,-3 -1.5,-2.328 -1.5,-1.5C-1.5,-0.672 -0.828,0 0,0C0.828,0 1.5,-0.672 1.5,-1.5C1.5,-2.328 0.828,-3 0,-3" style="fill:rgb(13,121,242);"/>
            </g>
            <g transform="matrix(-1,0,0,1,208.666,16.5)">
                <path d="M0,-3C-0.828,-3 -1.5,-2.328 -1.5,-1.5C-1.5,-0.672 -0.828,0 0,0C0.828,0 1.5,-0.672 1.5,-1.5C1.5,-2.328 0.828,-3 0,-3" style="fill:rgb(13,121,242);"/>
            </g>
            <g transform="matrix(-1,0,0,1,213.666,16.5)">
                <path d="M0,-3C-0.828,-3 -1.5,-2.328 -1.5,-1.5C-1.5,-0.672 -0.828,0 0,0C0.828,0 1.5,-0.672 1.5,-1.5C1.5,-2.328 0.828,-3 0,-3" style="fill:rgb(150,0,145);"/>
            </g>
            <g transform="matrix(-1,0,0,1,218.666,16.5)">
                <path d="M0,-3C-0.828,-3 -1.5,-2.328 -1.5,-1.5C-1.5,-0.672 -0.828,0 0,0C0.828,0 1.5,-0.672 1.5,-1.5C1.5,-2.328 0.828,-3 0,-3" style="fill:rgb(13,121,242);"/>
            </g>
            <g transform="matrix(-1,0,0,1,223.666,16.5)">
                <path d="M0,-3C-0.828,-3 -1.5,-2.328 -1.5,-1.5C-1.5,-0.672 -0.828,0 0,0C0.828,0 1.5,-0.672 1.5,-1.5C1.5,-2.328 0.828,-3 0,-3" style="fill:rgb(13,121,242);"/>
            </g>
            <g transform="matrix(-1,0,0,1,228.666,16.3253)">
                <circle cx="0" cy="-1.325" r="1.325" style="fill:none;stroke:rgb(150,0,145);stroke-width:0.7px;"/>
            </g>
            <g transform="matrix(-1,0,0,1,233.666,16.5)">
                <path d="M0,-3C-0.828,-3 -1.5,-2.328 -1.5,-1.5C-1.5,-0.672 -0.828,0 0,0C0.828,0 1.5,-0.672 1.5,-1.5C1.5,-2.328 0.828,-3 0,-3" style="fill:rgb(13,121,242);"/>
            </g>
            <g transform="matrix(-1,0,0,1,238.666,16.5)">
                <path d="M0,-3C-0.828,-3 -1.5,-2.328 -1.5,-1.5C-1.5,-0.672 -0.828,0 0,0C0.828,0 1.5,-0.672 1.5,-1.5C1.5,-2.328 0.828,-3 0,-3" style="fill:rgb(13,121,242);"/>
            </g>
            <g transform="matrix(1,0,0,1,176.194,1.2386)">
                <path d="M0,17.652C0.02,17.661 0.108,17.761 0.119,17.761L0.338,17.761C0.366,17.761 0.446,17.752 0.446,17.661C0.446,17.622 0.428,17.602 0.407,17.572C0.05,17.215 -0.486,16.669 -1.104,15.576C-2.176,13.669 -2.572,11.215 -2.572,8.832C-2.572,4.421 -1.32,1.827 0.417,0.069C0.446,0.04 0.446,0.01 0.446,-0.01C0.446,-0.109 0.378,-0.109 0.258,-0.109C0.13,-0.109 0.108,-0.109 0.02,-0.029C-0.923,0.785 -1.986,2.166 -2.672,4.261C-3.099,5.572 -3.328,7.172 -3.328,8.821C-3.328,11.176 -2.9,13.838 -1.342,16.143C-1.072,16.53 -0.705,16.936 -0.705,16.947C-0.606,17.066 -0.468,17.226 -0.388,17.294L0,17.652Z" style="fill-rule:nonzero;"/>
            </g>
            <g transform="matrix(1,0,0,1,140.219,1.2386)">
                <path d="M0,17.652C0.021,17.661 0.11,17.761 0.119,17.761L0.338,17.761C0.367,17.761 0.447,17.752 0.447,17.661C0.447,17.622 0.429,17.602 0.408,17.572C0.05,17.215 -0.485,16.669 -1.103,15.576C-2.175,13.669 -2.571,11.215 -2.571,8.832C-2.571,4.421 -1.319,1.827 0.417,0.069C0.447,0.04 0.447,0.01 0.447,-0.01C0.447,-0.109 0.378,-0.109 0.258,-0.109C0.13,-0.109 0.11,-0.109 0.021,-0.029C-0.923,0.785 -1.985,2.166 -2.672,4.261C-3.098,5.572 -3.328,7.172 -3.328,8.821C-3.328,11.176 -2.899,13.838 -1.34,16.143C-1.071,16.53 -0.705,16.936 -0.705,16.947C-0.605,17.066 -0.467,17.226 -0.387,17.294L0,17.652Z" style="fill-rule:nonzero;"/>
            </g>
            <g transform="matrix(1,0,0,1,241.088,1.1093)">
                <path d="M0,17.652C-0.021,17.661 -0.11,17.761 -0.119,17.761L-0.338,17.761C-0.367,17.761 -0.447,17.752 -0.447,17.661C-0.447,17.622 -0.428,17.602 -0.408,17.572C-0.05,17.215 0.486,16.669 1.104,15.575C2.175,13.669 2.572,11.215 2.572,8.832C2.572,4.421 1.32,1.827 -0.417,0.069C-0.447,0.039 -0.447,0.01 -0.447,-0.011C-0.447,-0.109 -0.378,-0.109 -0.258,-0.109C-0.13,-0.109 -0.11,-0.109 -0.021,-0.029C0.923,0.785 1.986,2.166 2.672,4.261C3.098,5.572 3.328,7.172 3.328,8.821C3.328,11.175 2.9,13.838 1.34,16.143C1.072,16.53 0.704,16.936 0.704,16.947C0.606,17.066 0.467,17.225 0.387,17.294L0,17.652Z" style="fill-rule:nonzero;"/>
            </g>
            <g transform="matrix(1,0,0,1,158.249,10.0706)">
                <path d="M0,-0.011C0,-2.861 -0.666,-5.892 -2.624,-8.127C-2.763,-8.286 -3.13,-8.674 -3.368,-8.881C-3.438,-8.941 -3.458,-8.941 -3.586,-8.941C-3.686,-8.941 -3.775,-8.941 -3.775,-8.842C-3.775,-8.802 -3.736,-8.763 -3.716,-8.742C-3.378,-8.395 -2.842,-7.849 -2.225,-6.756C-1.153,-4.849 -0.755,-2.395 -0.755,-0.011C-0.755,4.3 -1.947,6.933 -3.736,8.751C-3.755,8.77 -3.775,8.8 -3.775,8.83C-3.775,8.93 -3.686,8.93 -3.586,8.93C-3.458,8.93 -3.438,8.93 -3.349,8.85C-2.405,8.036 -1.342,6.655 -0.657,4.559C-0.219,3.198 0,1.589 0,-0.011" style="fill-rule:nonzero;"/>
            </g>
            <g transform="matrix(1,0,0,1,165.346,3.5935)">
                <path d="M0,0.344C0.112,0.344 0.281,0.344 0.281,0.175C0.281,0 0.12,0 0,0L-4.188,0C-4.302,0 -4.471,0 -4.471,0.169C-4.471,0.344 -4.31,0.344 -4.188,0.344L0,0.344Z" style="fill-rule:nonzero;"/>
            </g>
            <g transform="matrix(1,0,0,1,168.671,5.3292)">
                <path d="M0,-4.273C0,-4.464 -0.015,-4.47 -0.211,-4.47C-0.661,-4.028 -1.3,-4.022 -1.59,-4.022L-1.59,-3.768C-1.421,-3.768 -0.957,-3.768 -0.569,-3.965L-0.569,-0.379C-0.569,-0.147 -0.569,-0.056 -1.271,-0.056L-1.54,-0.056L-1.54,0.197C-1.413,0.191 -0.549,0.169 -0.288,0.169C-0.071,0.169 0.815,0.191 0.97,0.197L0.97,-0.056L0.703,-0.056C0,-0.056 0,-0.147 0,-0.379L0,-4.273Z" style="fill-rule:nonzero;"/>
            </g>
        </g>
        <g transform="matrix(1,0,0,1,107.266,21.6919)">
            <path d="M0,-3.626C0,-3.834 -0.069,-3.923 -0.139,-3.923C-0.178,-3.923 -0.267,-3.884 -0.278,-3.656C-0.317,-2.97 -1.012,-2.562 -1.659,-2.562C-2.234,-2.562 -2.731,-2.87 -3.248,-3.218C-3.784,-3.576 -4.32,-3.934 -4.967,-3.934C-5.891,-3.934 -6.625,-3.228 -6.625,-2.314C-6.625,-2.096 -6.545,-2.017 -6.486,-2.017C-6.387,-2.017 -6.347,-2.204 -6.347,-2.245C-6.298,-3.079 -5.483,-3.377 -4.967,-3.377C-4.391,-3.377 -3.894,-3.07 -3.377,-2.721C-2.841,-2.364 -2.305,-2.006 -1.659,-2.006C-0.734,-2.006 0,-2.712 0,-3.626M0,-1.301C0,-1.588 -0.119,-1.609 -0.139,-1.609C-0.178,-1.609 -0.267,-1.559 -0.278,-1.34C-0.317,-0.656 -1.012,-0.249 -1.659,-0.249C-2.234,-0.249 -2.731,-0.556 -3.248,-0.904C-3.784,-1.262 -4.32,-1.618 -4.967,-1.618C-5.891,-1.618 -6.625,-0.913 -6.625,0C-6.625,0.219 -6.545,0.298 -6.486,0.298C-6.387,0.298 -6.347,0.11 -6.347,0.069C-6.298,-0.765 -5.483,-1.062 -4.967,-1.062C-4.391,-1.062 -3.894,-0.754 -3.377,-0.407C-2.841,-0.049 -2.305,0.308 -1.659,0.308C-0.716,0.308 0,-0.426 0,-1.301" style="fill-rule:nonzero;"/>
        </g>
        <g transform="matrix(1,0,0,1,112.648,30.0697)">
            <path d="M0,-20.14C0,-22.523 0.397,-24.978 1.469,-26.884C2.086,-27.978 2.622,-28.523 2.98,-28.881C3,-28.91 3.019,-28.931 3.019,-28.97C3.019,-29.06 2.939,-29.07 2.909,-29.07L2.691,-29.07C2.681,-29.07 2.592,-28.97 2.572,-28.96L2.184,-28.603C2.105,-28.534 1.966,-28.374 1.867,-28.256C1.867,-28.245 1.5,-27.839 1.231,-27.451C-0.328,-25.146 -0.756,-22.484 -0.756,-20.129L-0.756,-0.01C-0.756,2.344 -0.328,5.007 1.231,7.312C1.5,7.699 1.867,8.105 1.867,8.116C1.966,8.235 2.105,8.394 2.184,8.464L2.572,8.821C2.592,8.83 2.681,8.93 2.691,8.93L2.909,8.93C2.939,8.93 3.019,8.922 3.019,8.83C3.019,8.791 3,8.771 2.98,8.741C2.622,8.383 2.086,7.839 1.469,6.744C0.397,4.839 0,2.383 0,0.001"/>
        </g>
        <g transform="matrix(1,0,0,1,132.685,30.0697)">
            <path d="M0,-20.14C0,-22.523 -0.397,-24.978 -1.469,-26.884C-2.086,-27.978 -2.622,-28.523 -2.98,-28.881C-3,-28.91 -3.019,-28.931 -3.019,-28.97C-3.019,-29.06 -2.939,-29.07 -2.91,-29.07L-2.691,-29.07C-2.681,-29.07 -2.592,-28.97 -2.572,-28.96L-2.185,-28.603C-2.105,-28.534 -1.966,-28.374 -1.867,-28.256C-1.867,-28.245 -1.5,-27.839 -1.232,-27.451C0.328,-25.146 0.756,-22.484 0.756,-20.129L0.756,-0.01C0.756,2.344 0.328,5.007 -1.232,7.312C-1.5,7.699 -1.867,8.105 -1.867,8.116C-1.966,8.235 -2.105,8.394 -2.185,8.464L-2.572,8.821C-2.592,8.83 -2.681,8.93 -2.691,8.93L-2.91,8.93C-2.939,8.93 -3.019,8.922 -3.019,8.83C-3.019,8.791 -3,8.771 -2.98,8.741C-2.622,8.383 -2.086,7.839 -1.469,6.744C-0.397,4.839 0,2.383 0,0.001"/>
        </g>
        <g transform="matrix(1,0,0,1,24.6475,30.0697)">
            <path d="M0,-20.14C0,-22.523 0.397,-24.978 1.469,-26.884C2.086,-27.978 2.622,-28.523 2.98,-28.881C3,-28.91 3.019,-28.931 3.019,-28.97C3.019,-29.06 2.939,-29.07 2.909,-29.07L2.691,-29.07C2.681,-29.07 2.592,-28.97 2.572,-28.96L2.184,-28.603C2.105,-28.534 1.966,-28.374 1.867,-28.256C1.867,-28.245 1.5,-27.839 1.231,-27.451C-0.328,-25.146 -0.756,-22.484 -0.756,-20.129L-0.756,-0.01C-0.756,2.344 -0.328,5.007 1.231,7.312C1.5,7.699 1.867,8.105 1.867,8.116C1.966,8.235 2.105,8.394 2.184,8.464L2.572,8.821C2.592,8.83 2.681,8.93 2.691,8.93L2.909,8.93C2.939,8.93 3.019,8.922 3.019,8.83C3.019,8.791 3,8.771 2.98,8.741C2.622,8.383 2.086,7.839 1.469,6.744C0.397,4.839 0,2.383 0,0.001"/>
        </g>
        <g transform="matrix(1,0,0,1,94.6846,30.0697)">
            <path d="M0,-20.14C0,-22.523 -0.397,-24.978 -1.469,-26.884C-2.086,-27.978 -2.622,-28.523 -2.98,-28.881C-3,-28.91 -3.019,-28.931 -3.019,-28.97C-3.019,-29.06 -2.939,-29.07 -2.909,-29.07L-2.691,-29.07C-2.681,-29.07 -2.592,-28.97 -2.572,-28.96L-2.184,-28.603C-2.105,-28.534 -1.966,-28.374 -1.867,-28.256C-1.867,-28.245 -1.5,-27.839 -1.231,-27.451C0.328,-25.146 0.756,-22.484 0.756,-20.129L0.756,-0.01C0.756,2.344 0.328,5.007 -1.231,7.312C-1.5,7.699 -1.867,8.105 -1.867,8.116C-1.966,8.235 -2.105,8.394 -2.184,8.464L-2.572,8.821C-2.592,8.83 -2.681,8.93 -2.691,8.93L-2.909,8.93C-2.939,8.93 -3.019,8.922 -3.019,8.83C-3.019,8.791 -3,8.771 -2.98,8.741C-2.622,8.383 -2.086,7.839 -1.469,6.744C-0.397,4.839 0,2.383 0,0.001"/>
        </g>
        <g transform="matrix(10.9091,0,0,10.9091,11.2119,22.6441)">
            <path d="M0.074,-0.133L0.704,-0.133C0.714,-0.133 0.722,-0.143 0.722,-0.153C0.722,-0.163 0.714,-0.173 0.704,-0.173L0.074,-0.173C0.063,-0.173 0.055,-0.163 0.055,-0.153C0.055,-0.143 0.063,-0.133 0.074,-0.133ZM0.074,-0.327L0.704,-0.327C0.714,-0.327 0.722,-0.337 0.722,-0.347C0.722,-0.357 0.714,-0.367 0.704,-0.367L0.074,-0.367C0.063,-0.367 0.055,-0.357 0.055,-0.347C0.055,-0.337 0.063,-0.327 0.074,-0.327Z" style="fill-rule:nonzero;"/>
        </g>
        <g transform="matrix(10.9091,0,0,10.9091,0,22.6441)">
            <path d="M0.044,-0C0.074,-0 0.103,-0.003 0.133,-0.003C0.169,-0.003 0.205,-0 0.242,-0C0.255,-0 0.256,-0.01 0.259,-0.022C0.259,-0.028 0.256,-0.035 0.249,-0.035C0.227,-0.035 0.195,-0.041 0.195,-0.068C0.195,-0.077 0.198,-0.087 0.202,-0.093L0.282,-0.227L0.529,-0.227L0.544,-0.062C0.539,-0.035 0.482,-0.035 0.46,-0.035C0.45,-0.035 0.449,-0.019 0.447,-0.013C0.447,-0.007 0.45,-0 0.457,-0C0.502,-0 0.547,-0.003 0.592,-0.003C0.631,-0.003 0.67,-0 0.71,-0C0.72,-0 0.721,-0.016 0.723,-0.022C0.723,-0.028 0.72,-0.035 0.713,-0.035C0.697,-0.035 0.648,-0.035 0.638,-0.046C0.636,-0.05 0.635,-0.054 0.634,-0.059L0.573,-0.705C0.573,-0.712 0.566,-0.716 0.56,-0.716L0.547,-0.716C0.539,-0.716 0.532,-0.711 0.528,-0.705L0.171,-0.103C0.171,-0.102 0.169,-0.102 0.169,-0.101C0.14,-0.056 0.102,-0.035 0.048,-0.035C0.038,-0.035 0.036,-0.019 0.035,-0.013C0.035,-0.008 0.038,-0 0.044,-0ZM0.302,-0.262L0.495,-0.586L0.526,-0.262L0.302,-0.262Z" style="fill-rule:nonzero;"/>
        </g>
    </g>
</svg>
