<?xml version="1.0" encoding="UTF-8" standalone="no"?>
<svg
   xmlns:dc="http://purl.org/dc/elements/1.1/"
   xmlns:cc="http://creativecommons.org/ns#"
   xmlns:rdf="http://www.w3.org/1999/02/22-rdf-syntax-ns#"
   xmlns:svg="http://www.w3.org/2000/svg"
   xmlns="http://www.w3.org/2000/svg"
   xmlns:sodipodi="http://sodipodi.sourceforge.net/DTD/sodipodi-0.dtd"
   xmlns:inkscape="http://www.inkscape.org/namespaces/inkscape"
   version="1.1"
   id="svg833"
   xml:space="preserve"
   width="454.211"
   height="53.505322"
   viewBox="0 0 454.211 53.505321"
   sodipodi:docname="factorization.svg"
   inkscape:version="1.0.1 (c497b03c, 2020-09-10)"><metadata
     id="metadata839"><rdf:RDF><cc:Work
         rdf:about=""><dc:format>image/svg+xml</dc:format><dc:type
           rdf:resource="http://purl.org/dc/dcmitype/StillImage" /><dc:title></dc:title></cc:Work></rdf:RDF></metadata><defs
     id="defs837"><clipPath
       clipPathUnits="userSpaceOnUse"
       id="clipPath867"><path
         d="M 0,80.485 H 228.267 V 0 H 0 Z"
         id="path865" /></clipPath><clipPath
       clipPathUnits="userSpaceOnUse"
       id="clipPath1929"><path
         d="M 0,80.485 H 228.267 V 0 H 0 Z"
         id="path1927" /></clipPath><clipPath
       clipPathUnits="userSpaceOnUse"
       id="clipPath1947"><path
         d="M 0,80.485 H 228.267 V 0 H 0 Z"
         id="path1945" /></clipPath><clipPath
       clipPathUnits="userSpaceOnUse"
       id="clipPath867-3"><path
         d="M 0,80.485 H 228.267 V 0 H 0 Z"
         id="path865-8" /></clipPath></defs><sodipodi:namedview
     pagecolor="#ffffff"
     bordercolor="#666666"
     borderopacity="1"
     objecttolerance="10"
     gridtolerance="10"
     guidetolerance="10"
     inkscape:pageopacity="0"
     inkscape:pageshadow="2"
     inkscape:window-width="1846"
     inkscape:window-height="991"
     id="namedview835"
     showgrid="false"
     inkscape:zoom="1.9056632"
     inkscape:cx="222.94626"
     inkscape:cy="-10.93777"
     inkscape:window-x="567"
     inkscape:window-y="471"
     inkscape:window-maximized="0"
     inkscape:current-layer="g841"
     fit-margin-top="0"
     fit-margin-left="0"
     fit-margin-right="0"
     fit-margin-bottom="0"
     inkscape:document-rotation="0" /><g
     id="g841"
     inkscape:groupmode="layer"
     inkscape:label="standardTTtoolbox"
     transform="matrix(1.3333333,0,0,-1.3333333,155.22498,42.718828)"><g
       id="g863"
       clip-path="url(#clipPath867-3)"
       transform="translate(-5.5885031,-13.581136)" /><g
       id="g4566"
       transform="matrix(6.1139626,0,0,6.1139626,-1777.7145,129.85386)"><g
         id="g1651"
         transform="translate(274.65009,-22.312083)"><path
           d="M 0,0 V 2.5"
           style="fill:none;stroke:#000000;stroke-width:0.5;stroke-linecap:square;stroke-linejoin:miter;stroke-miterlimit:10;stroke-dasharray:none;stroke-opacity:1"
           id="path1653" /></g><g
         id="g1655"
         transform="translate(280.00799,-22.312083)"><path
           d="M 0,0 V 2.5"
           style="fill:none;stroke:#000000;stroke-width:0.5;stroke-linecap:square;stroke-linejoin:miter;stroke-miterlimit:10;stroke-dasharray:none;stroke-opacity:1"
           id="path1657" /></g><g
         id="g1659"
         transform="translate(285.36549,-22.312083)"><path
           d="M 0,0 V 2.5"
           style="fill:none;stroke:#000000;stroke-width:0.5;stroke-linecap:square;stroke-linejoin:miter;stroke-miterlimit:10;stroke-dasharray:none;stroke-opacity:1"
           id="path1661" /></g><g
         id="g1663"
         transform="translate(290.72339,-22.312083)"><path
           d="M 0,0 V 2.5"
           style="fill:none;stroke:#000000;stroke-width:0.5;stroke-linecap:square;stroke-linejoin:miter;stroke-miterlimit:10;stroke-dasharray:none;stroke-opacity:1"
           id="path1665" /></g><path
         d="m 272.19589,-19.654283 h 21.028 v 2.676 h -21.028 z"
         style="fill:#92d050;fill-opacity:1;fill-rule:evenodd;stroke:#92d050;stroke-width:0.5;stroke-linecap:square;stroke-linejoin:bevel;stroke-miterlimit:10;stroke-dasharray:none;stroke-opacity:1"
         id="path1667" /><g
         id="g1669"
         transform="translate(271.97439,-18.894583)"><path
           d="M 0,0 C 0,1.084 -0.002,0.541 -0.001,1.111 0,2.136 -0.036,2.078 1.608,2.078"
           style="fill:#92d050;fill-opacity:1;fill-rule:evenodd;stroke:#1d1d1b;stroke-width:0.5;stroke-linecap:square;stroke-linejoin:miter;stroke-miterlimit:10;stroke-dasharray:none;stroke-opacity:1"
           id="path1671" /></g><g
         id="g1673"
         transform="translate(273.52219,-16.815483)"><path
           d="M 0,0 H 18.623"
           style="fill:none;stroke:#1d1d1b;stroke-width:0.5;stroke-linecap:square;stroke-linejoin:miter;stroke-miterlimit:10;stroke-dasharray:none;stroke-opacity:1"
           id="path1675" /></g><g
         id="g1677"
         transform="translate(273.51779,-19.812583)"><path
           d="M 0,0 H 18.623"
           style="fill:none;stroke:#1d1d1b;stroke-width:0.5;stroke-linecap:square;stroke-linejoin:miter;stroke-miterlimit:10;stroke-dasharray:none;stroke-opacity:1"
           id="path1679" /></g><g
         id="g1681"
         transform="translate(271.97289,-17.701284)"><path
           d="M 0,0 C 0,-1.084 -0.002,-0.541 -0.001,-1.11 0,-2.136 -0.041,-2.111 1.58,-2.111"
           style="fill:#92d050;fill-opacity:1;fill-rule:evenodd;stroke:#1d1d1b;stroke-width:0.5;stroke-linecap:square;stroke-linejoin:round;stroke-miterlimit:10;stroke-dasharray:none;stroke-opacity:1"
           id="path1683" /></g><g
         id="g1685"
         transform="translate(293.4011,-18.890683)"><path
           d="M 0,0 C 0,1.084 0.002,0.541 0.001,1.11 0,2.136 0.035,2.077 -1.606,2.077"
           style="fill:#92d050;fill-opacity:1;fill-rule:evenodd;stroke:#1d1d1b;stroke-width:0.5;stroke-linecap:square;stroke-linejoin:miter;stroke-miterlimit:10;stroke-dasharray:none;stroke-opacity:1"
           id="path1687" /></g><g
         id="g1689"
         transform="translate(293.39919,-17.701284)"><path
           d="m 0,0 c 0,-1.084 0.003,-0.541 0.002,-1.111 -0.002,-1.025 0.04,-1 -1.579,-1"
           style="fill:#92d050;fill-opacity:1;fill-rule:evenodd;stroke:#1d1d1b;stroke-width:0.5;stroke-linecap:square;stroke-linejoin:round;stroke-miterlimit:10;stroke-dasharray:none;stroke-opacity:1"
           id="path1691" /></g><g
         id="g1843"
         transform="translate(308.57979,-22.208583)"><path
           d="M 0,0 V 1.992"
           style="fill:none;stroke:#000000;stroke-width:0.5;stroke-linecap:square;stroke-linejoin:miter;stroke-miterlimit:10;stroke-dasharray:none;stroke-opacity:1"
           id="path1845" /></g><g
         id="g1847"
         transform="translate(310.58859,-18.225183)"><path
           d="M 0,0 H 1.606"
           style="fill:none;stroke:#000000;stroke-width:0.5;stroke-linecap:square;stroke-linejoin:miter;stroke-miterlimit:10;stroke-dasharray:none;stroke-opacity:1"
           id="path1849" /></g><g
         id="g1851"
         transform="translate(314.11889,-22.208583)"><path
           d="M 0,0 V 1.992"
           style="fill:none;stroke:#000000;stroke-width:0.5;stroke-linecap:square;stroke-linejoin:miter;stroke-miterlimit:10;stroke-dasharray:none;stroke-opacity:1"
           id="path1853" /></g><g
         id="g1855"
         transform="translate(316.12769,-18.225183)"><path
           d="M 0,0 H 1.607"
           style="fill:none;stroke:#000000;stroke-width:0.5;stroke-linecap:square;stroke-linejoin:miter;stroke-miterlimit:10;stroke-dasharray:none;stroke-opacity:1"
           id="path1857" /></g><g
         id="g1859"
         transform="translate(319.60279,-22.208583)"><path
           d="M 0,0 V 1.992"
           style="fill:none;stroke:#000000;stroke-width:0.5;stroke-linecap:square;stroke-linejoin:miter;stroke-miterlimit:10;stroke-dasharray:none;stroke-opacity:1"
           id="path1861" /></g><g
         id="g1863"
         transform="translate(321.61159,-18.225183)"><path
           d="M 0,0 H 1.606"
           style="fill:none;stroke:#000000;stroke-width:0.5;stroke-linecap:square;stroke-linejoin:miter;stroke-miterlimit:10;stroke-dasharray:none;stroke-opacity:1"
           id="path1865" /></g><g
         id="g1867"
         transform="translate(325.18089,-22.208583)"><path
           d="M 0,0 V 1.992"
           style="fill:none;stroke:#000000;stroke-width:0.5;stroke-linecap:square;stroke-linejoin:miter;stroke-miterlimit:10;stroke-dasharray:none;stroke-opacity:1"
           id="path1869" /></g><g
         id="g1871"
         transform="translate(308.58759,-16.248583)"><path
           d="m 0,0 c -1.104,0 -2,-0.889 -2,-1.984 0,-1.096 0.896,-1.984 2,-1.984 1.104,0 2.001,0.888 2.001,1.984 C 2.001,-0.889 1.104,0 0,0"
           style="fill:#92d050;fill-opacity:1;fill-rule:evenodd;stroke:none"
           id="path1873" /></g><g
         id="g1875"
         transform="translate(308.58759,-16.248583)"><path
           d="m 0,0 c -1.104,0 -2,-0.889 -2,-1.984 0,-1.096 0.896,-1.984 2,-1.984 1.104,0 2.001,0.888 2.001,1.984 C 2.001,-0.889 1.104,0 0,0 Z"
           style="fill:none;stroke:#1d1d1b;stroke-width:0.5;stroke-linecap:square;stroke-linejoin:round;stroke-miterlimit:10;stroke-dasharray:none;stroke-opacity:1"
           id="path1877" /></g><g
         id="g1879"
         transform="translate(314.12669,-16.248583)"><path
           d="m 0,0 c -1.104,0 -2.001,-0.889 -2.001,-1.984 0,-1.096 0.897,-1.984 2.001,-1.984 1.104,0 2.001,0.888 2.001,1.984 C 2.001,-0.889 1.104,0 0,0"
           style="fill:#92d050;fill-opacity:1;fill-rule:evenodd;stroke:none"
           id="path1881" /></g><g
         id="g1883"
         transform="translate(314.12669,-16.248583)"><path
           d="m 0,0 c -1.104,0 -2.001,-0.889 -2.001,-1.984 0,-1.096 0.897,-1.984 2.001,-1.984 1.104,0 2.001,0.888 2.001,1.984 C 2.001,-0.889 1.104,0 0,0 Z"
           style="fill:none;stroke:#1d1d1b;stroke-width:0.5;stroke-linecap:square;stroke-linejoin:bevel;stroke-miterlimit:10;stroke-dasharray:none;stroke-opacity:1"
           id="path1885" /></g><g
         id="g1887"
         transform="translate(319.61059,-16.248583)"><path
           d="m 0,0 c -1.104,0 -2,-0.889 -2,-1.984 0,-1.096 0.896,-1.984 2,-1.984 1.104,0 2.001,0.888 2.001,1.984 C 2.001,-0.889 1.104,0 0,0"
           style="fill:#ed7d31;fill-opacity:1;fill-rule:evenodd;stroke:none"
           id="path1889" /></g><g
         id="g1891"
         transform="translate(319.61059,-16.248583)"><path
           d="m 0,0 c -1.104,0 -2,-0.889 -2,-1.984 0,-1.096 0.896,-1.984 2,-1.984 1.104,0 2.001,0.888 2.001,1.984 C 2.001,-0.889 1.104,0 0,0"
           style="fill:#92d050;fill-opacity:1;fill-rule:nonzero;stroke:none"
           id="path1893" /></g><g
         id="g1895"
         transform="translate(319.61059,-16.248583)"><path
           d="m 0,0 c -1.104,0 -2,-0.889 -2,-1.984 0,-1.096 0.896,-1.984 2,-1.984 1.104,0 2.001,0.888 2.001,1.984 C 2.001,-0.889 1.104,0 0,0 Z"
           style="fill:none;stroke:#000000;stroke-width:0.5;stroke-linecap:butt;stroke-linejoin:miter;stroke-miterlimit:10;stroke-dasharray:none;stroke-opacity:1"
           id="path1897" /></g><g
         id="g1899"
         transform="translate(325.18769,-16.248583)"><path
           d="m 0,0 c -1.104,0 -2.001,-0.889 -2.001,-1.984 0,-1.096 0.897,-1.984 2.001,-1.984 1.105,0 2.002,0.888 2.002,1.984 C 2.002,-0.889 1.105,0 0,0"
           style="fill:#ed7d31;fill-opacity:1;fill-rule:evenodd;stroke:none"
           id="path1901" /></g><g
         id="g1903"
         transform="translate(325.18769,-16.248583)"><path
           d="m 0,0 c -1.104,0 -2.001,-0.889 -2.001,-1.984 0,-1.096 0.897,-1.984 2.001,-1.984 1.105,0 2.002,0.888 2.002,1.984 C 2.002,-0.889 1.105,0 0,0"
           style="fill:#92d050;fill-opacity:1;fill-rule:nonzero;stroke:none"
           id="path1905" /></g><g
         id="g1907"
         transform="translate(325.18769,-16.248583)"><path
           d="m 0,0 c -1.104,0 -2.001,-0.889 -2.001,-1.984 0,-1.096 0.897,-1.984 2.001,-1.984 1.105,0 2.002,0.888 2.002,1.984 C 2.002,-0.889 1.105,0 0,0 Z"
           style="fill:none;stroke:#000000;stroke-width:0.5;stroke-linecap:butt;stroke-linejoin:miter;stroke-miterlimit:10;stroke-dasharray:none;stroke-opacity:1"
           id="path1909" /></g><g
         id="g1911"
         transform="translate(301.40259,-17.914584)"><path
           d="m 0,0 c -0.087,-0.024 -0.175,-0.037 -0.256,-0.037 -0.406,0 -0.786,0.268 -1.124,0.55 -0.267,0.229 -0.566,0.472 -0.891,0.472 -0.056,0 -0.119,-0.006 -0.182,-0.024 -0.424,-0.125 -0.68,-0.381 -0.735,-0.923 0,-0.038 -0.032,-0.069 -0.076,-0.069 -0.038,0 -0.075,0.031 -0.075,0.081 0.069,0.675 0.269,1.067 0.792,1.222 0.088,0.026 0.176,0.039 0.257,0.039 0.405,0 0.786,-0.269 1.123,-0.549 0.268,-0.232 0.568,-0.475 0.893,-0.475 0.054,0 0.118,0.006 0.18,0.025 0.424,0.125 0.68,0.38 0.736,0.923 0,0.037 0.032,0.07 0.076,0.07 0.037,0 0.074,-0.033 0.074,-0.081 C 0.724,0.549 0.524,0.156 0,0 m 0.68,-0.861 h -3.907 c -0.069,0 -0.125,0.056 -0.125,0.126 0,0.067 0.056,0.124 0.125,0.124 H 0.68 c 0.069,0 0.125,-0.057 0.125,-0.124 0,-0.07 -0.056,-0.126 -0.125,-0.126"
           style="fill:#000000;fill-opacity:1;fill-rule:nonzero;stroke:none"
           id="path1913" /></g></g></g></svg>
